<svg width="388" height="479" viewBox="0 0 388 479" fill="none" xmlns="http://www.w3.org/2000/svg">
<path d="M45 352L344 353" stroke="white" stroke-width="65" stroke-linecap="round"/>
<path d="M45 352V33" stroke="white" stroke-width="65" stroke-linecap="round"/>
<path d="M324.244 48.8523C239.258 48.8523 120.758 30.1147 127.256 168.353" stroke="#0D00FF" stroke-width="65" stroke-linecap="round"/>
<path d="M127.258 263.853C212.244 263.853 330.744 282.591 324.246 144.353" stroke="#0D00FF" stroke-width="65" stroke-linecap="round"/>
<path d="M20.1328 476V417.818H35.9283V463.273H59.451V476H20.1328ZM81.6314 417.818V476H65.8359V417.818H81.6314ZM89.1172 476V417.818H114.231C118.549 417.818 122.327 418.67 125.566 420.375C128.805 422.08 131.324 424.475 133.123 427.562C134.922 430.65 135.822 434.258 135.822 438.386C135.822 442.553 134.894 446.161 133.038 449.21C131.201 452.259 128.615 454.608 125.282 456.256C121.968 457.903 118.094 458.727 113.663 458.727H98.6626V446.455H110.481C112.337 446.455 113.918 446.133 115.225 445.489C116.551 444.826 117.564 443.888 118.265 442.676C118.985 441.464 119.344 440.034 119.344 438.386C119.344 436.72 118.985 435.299 118.265 434.125C117.564 432.932 116.551 432.023 115.225 431.398C113.918 430.754 112.337 430.432 110.481 430.432H104.913V476H89.1172Z" fill="white"/>
<path d="M172.981 436C172.829 434.106 172.119 432.629 170.85 431.568C169.6 430.508 167.697 429.977 165.14 429.977C163.511 429.977 162.176 430.176 161.134 430.574C160.112 430.953 159.354 431.473 158.862 432.136C158.369 432.799 158.113 433.557 158.094 434.409C158.057 435.11 158.18 435.744 158.464 436.312C158.767 436.862 159.24 437.364 159.884 437.818C160.528 438.254 161.352 438.652 162.356 439.011C163.36 439.371 164.553 439.693 165.935 439.977L170.708 441C173.928 441.682 176.683 442.581 178.975 443.699C181.267 444.816 183.142 446.133 184.6 447.648C186.058 449.144 187.129 450.83 187.81 452.705C188.511 454.58 188.871 456.625 188.89 458.841C188.871 462.667 187.915 465.905 186.021 468.557C184.127 471.208 181.418 473.225 177.896 474.608C174.392 475.991 170.178 476.682 165.254 476.682C160.197 476.682 155.784 475.934 152.015 474.438C148.265 472.941 145.348 470.64 143.265 467.534C141.201 464.409 140.159 460.413 140.14 455.545H155.14C155.235 457.326 155.68 458.822 156.475 460.034C157.271 461.246 158.388 462.165 159.827 462.79C161.286 463.415 163.019 463.727 165.026 463.727C166.712 463.727 168.123 463.519 169.259 463.102C170.396 462.686 171.257 462.108 171.844 461.369C172.432 460.631 172.735 459.788 172.754 458.841C172.735 457.951 172.441 457.174 171.873 456.511C171.324 455.83 170.415 455.223 169.146 454.693C167.877 454.144 166.163 453.633 164.004 453.159L158.208 451.909C153.057 450.792 148.994 448.926 146.021 446.312C143.066 443.68 141.598 440.091 141.617 435.545C141.598 431.852 142.583 428.623 144.572 425.858C146.579 423.074 149.354 420.905 152.896 419.352C156.456 417.799 160.538 417.023 165.14 417.023C169.837 417.023 173.899 417.809 177.327 419.381C180.755 420.953 183.397 423.169 185.254 426.028C187.129 428.869 188.076 432.193 188.094 436H172.981ZM192.512 417.818H210.126L221.489 441.455H221.944L233.308 417.818H250.921L229.558 457.705V476H213.876V457.705L192.512 417.818ZM306.411 417.818V476H293.229L272.207 445.432H271.866V476H256.07V417.818H269.479L290.161 448.273H290.616V417.818H306.411ZM368.201 439.636H352.178C352.065 438.311 351.762 437.108 351.269 436.028C350.796 434.949 350.133 434.021 349.281 433.244C348.447 432.449 347.434 431.843 346.241 431.426C345.048 430.991 343.693 430.773 342.178 430.773C339.527 430.773 337.282 431.417 335.445 432.705C333.627 433.992 332.245 435.839 331.298 438.244C330.37 440.65 329.906 443.538 329.906 446.909C329.906 450.47 330.379 453.453 331.326 455.858C332.292 458.244 333.684 460.044 335.502 461.256C337.32 462.449 339.508 463.045 342.065 463.045C343.523 463.045 344.83 462.866 345.985 462.506C347.14 462.127 348.144 461.587 348.996 460.886C349.849 460.186 350.54 459.343 351.07 458.358C351.62 457.354 351.989 456.227 352.178 454.977L368.201 455.091C368.012 457.553 367.32 460.062 366.127 462.619C364.934 465.157 363.239 467.506 361.042 469.665C358.864 471.805 356.165 473.528 352.945 474.835C349.726 476.142 345.985 476.795 341.724 476.795C336.383 476.795 331.591 475.65 327.349 473.358C323.125 471.066 319.782 467.695 317.32 463.244C314.877 458.794 313.656 453.348 313.656 446.909C313.656 440.432 314.906 434.977 317.406 430.545C319.906 426.095 323.277 422.733 327.519 420.46C331.762 418.169 336.496 417.023 341.724 417.023C345.398 417.023 348.779 417.525 351.866 418.528C354.953 419.532 357.661 421 359.991 422.932C362.32 424.845 364.195 427.203 365.616 430.006C367.036 432.809 367.898 436.019 368.201 439.636Z" fill="#0015FF"/>
</svg>
