<svg width="3213" height="2725" viewBox="0 0 3213 2725" fill="none" xmlns="http://www.w3.org/2000/svg">
<path d="M835.951 1692.14L1931.08 1695.8" stroke="#373737" stroke-width="238.071" stroke-linecap="round"/>
<path d="M835.951 1692.14V523.757" stroke="#373737" stroke-width="238.071" stroke-linecap="round"/>
<path d="M1858.72 581.818C1547.44 581.818 1113.42 513.189 1137.22 1019.5" stroke="#FF0000" stroke-width="238.071" stroke-linecap="round"/>
<path d="M1137.23 1369.29C1448.51 1369.29 1882.53 1437.92 1858.73 931.602" stroke="#FF0000" stroke-width="238.071" stroke-linecap="round"/>
<path d="M744.872 2144.62V1931.52H802.725V2098H888.88V2144.62H744.872ZM970.119 1931.52V2144.62H912.266V1931.52H970.119ZM997.536 2144.62V1931.52H1089.52C1105.33 1931.52 1119.17 1934.64 1131.04 1940.88C1142.9 1947.13 1152.12 1955.9 1158.71 1967.21C1165.3 1978.52 1168.6 1991.73 1168.6 2006.85C1168.6 2022.11 1165.2 2035.33 1158.4 2046.5C1151.67 2057.67 1142.2 2066.27 1129.99 2072.3C1117.86 2078.34 1103.67 2081.35 1087.44 2081.35H1032.5V2036.4H1075.78C1082.58 2036.4 1088.37 2035.22 1093.16 2032.87C1098.02 2030.44 1101.73 2027 1104.29 2022.57C1106.93 2018.13 1108.25 2012.89 1108.25 2006.85C1108.25 2000.75 1106.93 1995.55 1104.29 1991.25C1101.73 1986.88 1098.02 1983.55 1093.16 1981.26C1088.37 1978.9 1082.58 1977.72 1075.78 1977.72H1055.39V2144.62H997.536Z" fill="#313131"/>
<path d="M1304.7 1998.11C1304.14 1991.18 1301.54 1985.77 1296.89 1981.88C1292.32 1978 1285.34 1976.05 1275.98 1976.05C1270.01 1976.05 1265.12 1976.78 1261.31 1978.24C1257.56 1979.63 1254.79 1981.53 1252.98 1983.96C1251.18 1986.39 1250.24 1989.16 1250.18 1992.29C1250.04 1994.85 1250.49 1997.18 1251.53 1999.26C1252.64 2001.27 1254.37 2003.11 1256.73 2004.77C1259.09 2006.37 1262.11 2007.82 1265.78 2009.14C1269.46 2010.46 1273.83 2011.64 1278.89 2012.68L1296.37 2016.43C1308.17 2018.92 1318.26 2022.22 1326.65 2026.31C1335.05 2030.4 1341.91 2035.22 1347.26 2040.77C1352.6 2046.25 1356.52 2052.43 1359.01 2059.3C1361.58 2066.16 1362.9 2073.65 1362.97 2081.77C1362.9 2095.78 1359.4 2107.64 1352.46 2117.36C1345.52 2127.07 1335.6 2134.46 1322.7 2139.52C1309.87 2144.58 1294.43 2147.12 1276.4 2147.12C1257.87 2147.12 1241.71 2144.38 1227.91 2138.9C1214.17 2133.42 1203.49 2124.99 1195.86 2113.61C1188.3 2102.16 1184.48 2087.53 1184.41 2069.7H1239.35C1239.7 2076.22 1241.33 2081.7 1244.24 2086.14C1247.16 2090.58 1251.25 2093.94 1256.52 2096.23C1261.86 2098.52 1268.21 2099.67 1275.56 2099.67C1281.74 2099.67 1286.91 2098.9 1291.07 2097.38C1295.23 2095.85 1298.39 2093.74 1300.54 2091.03C1302.69 2088.33 1303.8 2085.24 1303.87 2081.77C1303.8 2078.51 1302.72 2075.67 1300.64 2073.24C1298.63 2070.74 1295.3 2068.52 1290.65 2066.58C1286 2064.57 1279.73 2062.69 1271.82 2060.96L1250.59 2056.38C1231.72 2052.29 1216.84 2045.46 1205.95 2035.88C1195.13 2026.24 1189.76 2013.1 1189.82 1996.45C1189.76 1982.92 1193.36 1971.09 1200.65 1960.97C1208 1950.77 1218.16 1942.83 1231.13 1937.14C1244.17 1931.45 1259.12 1928.61 1275.98 1928.61C1293.18 1928.61 1308.06 1931.48 1320.62 1937.24C1333.17 1943 1342.85 1951.12 1349.65 1961.59C1356.52 1972 1359.98 1984.17 1360.05 1998.11H1304.7ZM1376.23 1931.52H1440.75L1482.37 2018.09H1484.03L1525.65 1931.52H1590.17L1511.92 2077.61V2144.62H1454.48V2077.61L1376.23 1931.52ZM1793.41 1931.52V2144.62H1745.12L1668.13 2032.66H1666.88V2144.62H1609.02V1931.52H1658.14L1733.89 2043.06H1735.55V1931.52H1793.41ZM2019.72 2011.43H1961.03C1960.62 2006.58 1959.51 2002.17 1957.7 1998.22C1955.97 1994.26 1953.54 1990.86 1950.42 1988.02C1947.37 1985.11 1943.66 1982.89 1939.29 1981.36C1934.92 1979.76 1929.96 1978.97 1924.41 1978.97C1914.7 1978.97 1906.48 1981.33 1899.75 1986.04C1893.09 1990.76 1888.02 1997.52 1884.55 2006.33C1881.16 2015.14 1879.46 2025.72 1879.46 2038.07C1879.46 2051.11 1881.19 2062.04 1884.66 2070.85C1888.2 2079.59 1893.3 2086.18 1899.95 2090.62C1906.61 2094.99 1914.63 2097.17 1923.99 2097.17C1929.33 2097.17 1934.12 2096.51 1938.35 2095.19C1942.58 2093.81 1946.26 2091.83 1949.38 2089.26C1952.5 2086.7 1955.03 2083.61 1956.97 2080C1958.99 2076.33 1960.34 2072.2 1961.03 2067.62L2019.72 2068.04C2019.02 2077.05 2016.49 2086.24 2012.12 2095.61C2007.75 2104.9 2001.54 2113.51 1993.5 2121.41C1985.52 2129.25 1975.64 2135.57 1963.84 2140.35C1952.05 2145.14 1938.35 2147.53 1922.74 2147.53C1903.18 2147.53 1885.63 2143.33 1870.09 2134.94C1854.62 2126.55 1842.38 2114.2 1833.36 2097.9C1824.41 2081.6 1819.94 2061.65 1819.94 2038.07C1819.94 2014.34 1824.52 1994.37 1833.67 1978.13C1842.83 1961.83 1855.18 1949.52 1870.72 1941.2C1886.25 1932.8 1903.6 1928.61 1922.74 1928.61C1936.2 1928.61 1948.58 1930.44 1959.89 1934.12C1971.2 1937.8 1981.12 1943.17 1989.65 1950.25C1998.18 1957.25 2005.05 1965.89 2010.25 1976.16C2015.45 1986.42 2018.61 1998.18 2019.72 2011.43Z" fill="#FF0004"/>
</svg>
