<svg width="1120" height="1126" viewBox="0 0 1120 1126" fill="none" xmlns="http://www.w3.org/2000/svg">
<path d="M199.714 758.215C153.428 758.215 115.907 795.737 115.907 842.022C115.907 888.308 153.429 925.83 199.714 925.83L199.714 758.215ZM921.217 925.829L1005.02 925.829L1005.02 758.214L921.217 758.214L921.217 925.829ZM199.714 925.83L921.217 925.829L921.217 758.214L199.714 758.215L199.714 925.83Z" fill="url(#paint0_linear_61_194)"/>
<path d="M115.915 842.407C116.125 888.692 153.817 926.043 200.103 925.832C246.388 925.622 283.739 887.93 283.528 841.645L115.915 842.407ZM280.084 84.2966L279.703 0.489946L112.09 1.25217L112.471 85.0588L280.084 84.2966ZM283.528 841.645L280.084 84.2966L112.471 85.0588L115.915 842.407L283.528 841.645Z" fill="url(#paint1_linear_61_194)"/>
<path d="M877.175 138.955C676.397 138.955 440.693 101.029 440.701 364.021" stroke="url(#paint2_linear_61_194)" stroke-width="218.237" stroke-linecap="square"/>
<path d="M440.702 607.071C627.731 607.071 877.184 639.453 877.176 390.211" stroke="url(#paint3_linear_61_194)" stroke-width="218.237" stroke-linecap="square"/>
<path d="M111.65 1122.98V972.946H152.381V1090.16H213.039V1122.98H111.65ZM270.236 972.946V1122.98H229.504V972.946H270.236ZM289.539 1122.98V972.946H354.3C365.435 972.946 375.178 975.144 383.53 979.54C391.881 983.935 398.377 990.113 403.017 998.074C407.656 1006.03 409.976 1015.34 409.976 1025.99C409.976 1036.73 407.583 1046.03 402.797 1053.9C398.059 1061.76 391.393 1067.82 382.797 1072.06C374.25 1076.31 364.263 1078.44 352.835 1078.44H314.154V1046.79H344.63C349.416 1046.79 353.494 1045.96 356.864 1044.3C360.283 1042.59 362.895 1040.17 364.702 1037.05C366.558 1033.92 367.486 1030.23 367.486 1025.99C367.486 1021.69 366.558 1018.02 364.702 1015C362.895 1011.92 360.283 1009.58 356.864 1007.96C353.494 1006.3 349.416 1005.47 344.63 1005.47H330.271V1122.98H289.539Z" fill="url(#paint4_linear_61_194)"/>
<path d="M505.798 1019.83C505.407 1014.95 503.576 1011.14 500.304 1008.4C497.08 1005.67 492.172 1004.3 485.579 1004.3C481.379 1004.3 477.935 1004.81 475.249 1005.84C472.612 1006.82 470.658 1008.16 469.389 1009.87C468.119 1011.58 467.459 1013.53 467.411 1015.73C467.313 1017.54 467.63 1019.17 468.363 1020.64C469.144 1022.05 470.365 1023.35 472.026 1024.52C473.686 1025.64 475.811 1026.67 478.399 1027.6C480.988 1028.53 484.065 1029.36 487.63 1030.09L499.937 1032.73C508.24 1034.48 515.346 1036.8 521.255 1039.68C527.165 1042.57 532 1045.96 535.761 1049.87C539.521 1053.73 542.281 1058.07 544.039 1062.91C545.846 1067.74 546.774 1073.02 546.823 1078.73C546.774 1088.6 544.307 1096.95 539.424 1103.79C534.54 1110.62 527.556 1115.82 518.472 1119.39C509.436 1122.96 498.57 1124.74 485.872 1124.74C472.832 1124.74 461.452 1122.81 451.733 1118.95C442.063 1115.09 434.542 1109.16 429.17 1101.15C423.846 1093.09 421.16 1082.79 421.111 1070.23H459.792C460.036 1074.82 461.184 1078.68 463.235 1081.81C465.286 1084.93 468.168 1087.3 471.879 1088.91C475.64 1090.53 480.109 1091.33 485.286 1091.33C489.632 1091.33 493.271 1090.79 496.201 1089.72C499.131 1088.65 501.354 1087.16 502.868 1085.25C504.382 1083.35 505.163 1081.17 505.212 1078.73C505.163 1076.44 504.406 1074.43 502.941 1072.72C501.525 1070.97 499.18 1069.4 495.908 1068.04C492.636 1066.62 488.216 1065.3 482.648 1064.08L467.704 1060.86C454.419 1057.97 443.944 1053.16 436.276 1046.42C428.657 1039.64 424.872 1030.38 424.921 1018.66C424.872 1009.14 427.412 1000.81 432.54 993.679C437.717 986.499 444.871 980.907 454.004 976.902C463.186 972.898 473.711 970.895 485.579 970.895C497.691 970.895 508.167 972.922 517.007 976.976C525.846 981.029 532.659 986.743 537.446 994.118C542.281 1001.44 544.723 1010.02 544.771 1019.83H505.798ZM556.163 972.946H601.583L630.887 1033.9H632.059L661.362 972.946H706.782L651.692 1075.8V1122.98H611.253V1075.8L556.163 972.946ZM849.874 972.946V1122.98H815.882L761.671 1044.15H760.792V1122.98H720.06V972.946H754.638L807.97 1051.48H809.143V972.946H849.874ZM1009.21 1029.21H967.893C967.6 1025.79 966.819 1022.69 965.549 1019.9C964.328 1017.12 962.619 1014.73 960.421 1012.73C958.272 1010.67 955.659 1009.11 952.582 1008.04C949.505 1006.91 946.013 1006.35 942.106 1006.35C935.269 1006.35 929.482 1008.01 924.744 1011.33C920.056 1014.65 916.49 1019.42 914.048 1025.62C911.655 1031.82 910.459 1039.27 910.459 1047.96C910.459 1057.14 911.68 1064.84 914.122 1071.04C916.612 1077.19 920.202 1081.83 924.891 1084.96C929.579 1088.04 935.22 1089.57 941.813 1089.57C945.574 1089.57 948.944 1089.11 951.923 1088.18C954.902 1087.2 957.491 1085.81 959.688 1084.01C961.886 1082.2 963.669 1080.03 965.036 1077.49C966.453 1074.9 967.405 1071.99 967.893 1068.77L1009.21 1069.06C1008.72 1075.41 1006.94 1081.88 1003.86 1088.47C1000.79 1095.02 996.415 1101.08 990.75 1106.64C985.133 1112.16 978.174 1116.61 969.871 1119.98C961.569 1123.35 951.923 1125.03 940.934 1125.03C927.162 1125.03 914.805 1122.08 903.866 1116.17C892.974 1110.26 884.354 1101.56 878.005 1090.09C871.705 1078.61 868.555 1064.57 868.555 1047.96C868.555 1031.26 871.778 1017.19 878.225 1005.77C884.672 994.289 893.365 985.62 904.305 979.759C915.245 973.85 927.455 970.895 940.934 970.895C950.409 970.895 959.127 972.189 967.087 974.778C975.048 977.366 982.032 981.151 988.039 986.133C994.047 991.066 998.882 997.146 1002.54 1004.37C1006.21 1011.6 1008.43 1019.88 1009.21 1029.21Z" fill="url(#paint5_linear_61_194)"/>
<defs>
<linearGradient id="paint0_linear_61_194" x1="562.916" y1="10.3762" x2="287.939" y2="621.439" gradientUnits="userSpaceOnUse">
<stop stop-color="#C9F5FF"/>
<stop offset="1" stop-color="#799399"/>
</linearGradient>
<linearGradient id="paint1_linear_61_194" x1="196.777" y1="84.6755" x2="200.221" y2="842.023" gradientUnits="userSpaceOnUse">
<stop stop-color="#C9F5FF"/>
<stop offset="1" stop-color="#799399"/>
</linearGradient>
<linearGradient id="paint2_linear_61_194" x1="440.701" y1="250.538" x2="877.175" y2="250.538" gradientUnits="userSpaceOnUse">
<stop stop-color="#41859E"/>
<stop offset="1" stop-color="#1D576C"/>
</linearGradient>
<linearGradient id="paint3_linear_61_194" x1="501.809" y1="665.087" x2="986.294" y2="394.474" gradientUnits="userSpaceOnUse">
<stop stop-color="#41859E"/>
<stop offset="1" stop-color="#1D576C"/>
</linearGradient>
<linearGradient id="paint4_linear_61_194" x1="344.678" y1="900.781" x2="-21.9601" y2="1184.49" gradientUnits="userSpaceOnUse">
<stop stop-color="#C9F5FF"/>
<stop offset="1" stop-color="#799399"/>
</linearGradient>
<linearGradient id="paint5_linear_61_194" x1="545.455" y1="966.252" x2="490.803" y2="1111.64" gradientUnits="userSpaceOnUse">
<stop stop-color="#41859E"/>
<stop offset="1" stop-color="#006286"/>
</linearGradient>
</defs>
</svg>
