<svg width="681" height="579" viewBox="0 0 681 579" fill="none" xmlns="http://www.w3.org/2000/svg">
<path d="M176.881 359.384L408.844 360.16" stroke="#373737" stroke-width="50.4268" stroke-linecap="round"/>
<path d="M176.881 359.383V111.904" stroke="#373737" stroke-width="50.4268" stroke-linecap="round"/>
<path d="M393.517 124.203C327.585 124.203 235.654 109.667 240.695 216.911" stroke="#FF0000" stroke-width="50.4268" stroke-linecap="round"/>
<path d="M240.696 291C306.628 291 398.559 305.536 393.518 198.292" stroke="#FF0000" stroke-width="50.4268" stroke-linecap="round"/>
<path d="M157.59 455.07V409.933H169.844V445.197H188.093V455.07H157.59ZM205.3 409.933V455.07H193.046V409.933H205.3ZM211.107 455.07V409.933H230.591C233.941 409.933 236.872 410.594 239.384 411.917C241.897 413.239 243.851 415.098 245.247 417.493C246.643 419.888 247.341 422.687 247.341 425.89C247.341 429.122 246.621 431.921 245.181 434.287C243.756 436.652 241.75 438.474 239.164 439.753C236.593 441.031 233.588 441.67 230.15 441.67H218.513V432.149H227.681C229.121 432.149 230.348 431.899 231.362 431.4C232.39 430.885 233.177 430.158 233.72 429.218C234.279 428.277 234.558 427.168 234.558 425.89C234.558 424.597 234.279 423.495 233.72 422.584C233.177 421.658 232.39 420.953 231.362 420.468C230.348 419.968 229.121 419.719 227.681 419.719H223.362V455.07H211.107Z" fill="#313131"/>
<path d="M276.169 424.038C276.051 422.569 275.5 421.423 274.516 420.6C273.546 419.777 272.069 419.366 270.086 419.366C268.822 419.366 267.786 419.52 266.978 419.829C266.185 420.123 265.597 420.527 265.215 421.041C264.833 421.555 264.635 422.143 264.62 422.804C264.59 423.348 264.686 423.84 264.906 424.281C265.141 424.707 265.509 425.096 266.008 425.449C266.508 425.787 267.147 426.095 267.926 426.375C268.704 426.654 269.63 426.904 270.703 427.124L274.405 427.917C276.903 428.446 279.041 429.144 280.819 430.011C282.597 430.878 284.051 431.899 285.183 433.075C286.314 434.235 287.144 435.543 287.673 436.998C288.217 438.452 288.496 440.039 288.511 441.758C288.496 444.726 287.754 447.239 286.285 449.296C284.815 451.353 282.714 452.918 279.981 453.99C277.263 455.063 273.994 455.599 270.174 455.599C266.251 455.599 262.827 455.019 259.903 453.858C256.994 452.697 254.731 450.912 253.115 448.502C251.514 446.078 250.705 442.978 250.691 439.202H262.328C262.401 440.583 262.746 441.744 263.364 442.684C263.981 443.624 264.848 444.337 265.964 444.822C267.096 445.307 268.44 445.549 269.997 445.549C271.305 445.549 272.4 445.388 273.281 445.064C274.163 444.741 274.832 444.293 275.287 443.72C275.743 443.147 275.978 442.493 275.992 441.758C275.978 441.068 275.75 440.465 275.309 439.951C274.883 439.422 274.178 438.952 273.193 438.541C272.209 438.114 270.879 437.718 269.204 437.35L264.708 436.381C260.711 435.514 257.56 434.067 255.253 432.039C252.961 429.997 251.822 427.212 251.837 423.686C251.822 420.821 252.586 418.315 254.129 416.17C255.686 414.01 257.839 412.328 260.587 411.123C263.349 409.918 266.515 409.316 270.086 409.316C273.73 409.316 276.881 409.926 279.541 411.145C282.2 412.365 284.25 414.084 285.69 416.303C287.144 418.506 287.879 421.085 287.894 424.038H276.169ZM291.321 409.933H304.985L313.801 428.27H314.154L322.97 409.933H336.634L320.061 440.877V455.07H307.895V440.877L291.321 409.933ZM379.683 409.933V455.07H369.457L353.148 431.356H352.883V455.07H340.629V409.933H351.032L367.077 433.56H367.429V409.933H379.683ZM427.62 426.86H415.189C415.101 425.831 414.866 424.898 414.484 424.06C414.117 423.223 413.602 422.503 412.941 421.901C412.295 421.283 411.509 420.813 410.583 420.49C409.657 420.152 408.607 419.983 407.431 419.983C405.374 419.983 403.633 420.483 402.208 421.482C400.797 422.481 399.725 423.914 398.99 425.78C398.27 427.646 397.91 429.886 397.91 432.502C397.91 435.264 398.278 437.578 399.012 439.444C399.762 441.296 400.842 442.691 402.252 443.632C403.663 444.557 405.36 445.02 407.343 445.02C408.475 445.02 409.488 444.881 410.385 444.601C411.281 444.308 412.06 443.889 412.721 443.345C413.382 442.802 413.918 442.148 414.33 441.384C414.756 440.605 415.042 439.731 415.189 438.761L427.62 438.849C427.473 440.759 426.936 442.706 426.011 444.69C425.085 446.659 423.77 448.48 422.066 450.155C420.376 451.816 418.282 453.153 415.784 454.167C413.287 455.181 410.385 455.687 407.079 455.687C402.935 455.687 399.218 454.798 395.927 453.021C392.65 451.243 390.057 448.627 388.147 445.174C386.251 441.722 385.304 437.497 385.304 432.502C385.304 427.477 386.273 423.245 388.213 419.807C390.152 416.354 392.768 413.746 396.059 411.983C399.35 410.205 403.023 409.316 407.079 409.316C409.929 409.316 412.552 409.705 414.947 410.484C417.342 411.263 419.443 412.402 421.25 413.9C423.057 415.384 424.512 417.214 425.614 419.388C426.716 421.563 427.385 424.053 427.62 426.86Z" fill="#FF0004"/>
</svg>
